<?xml version="1.0" encoding="utf-8" standalone="no"?>
<!DOCTYPE svg PUBLIC "-//W3C//DTD SVG 1.1//EN"
  "http://www.w3.org/Graphics/SVG/1.1/DTD/svg11.dtd">
<svg xmlns:xlink="http://www.w3.org/1999/xlink" width="666.800781pt" height="437.762109pt" viewBox="0 0 666.800781 437.762109" xmlns="http://www.w3.org/2000/svg" version="1.1">
 <metadata>
  <rdf:RDF xmlns:dc="http://purl.org/dc/elements/1.1/" xmlns:cc="http://creativecommons.org/ns#" xmlns:rdf="http://www.w3.org/1999/02/22-rdf-syntax-ns#">
   <cc:Work>
    <dc:type rdf:resource="http://purl.org/dc/dcmitype/StillImage"/>
    <dc:format>image/svg+xml</dc:format>
    <dc:creator>
     <cc:Agent>
      <dc:title>Matplotlib v3.11.2, https://matplotlib.org/</dc:title>
     </cc:Agent>
    </dc:creator>
   </cc:Work>
  </rdf:RDF>
 </metadata>
 <defs>
  <style type="text/css">*{stroke-linejoin: round; stroke-linecap: butt}</style>
 </defs>
 <g id="figure_1">
  <g id="patch_1">
   <path d="M -0 437.762109 
L 666.800781 437.762109 
L 666.800781 -0 
L -0 -0 
z
" style="fill: #ffffff"/>
  </g>
  <g id="axes_1">
   <g id="patch_2">
    <path d="M 45.800781 337.68 
L 324.800781 337.68 
L 324.800781 88.2 
L 45.800781 88.2 
z
" style="fill: #ffffff"/>
   </g>
   <g id="matplotlib.axis_1">
    <g id="xtick_1">
     <g id="line2d_1">
      <path d="M 58.482599 337.68 
L 58.482599 88.2 
" clip-path="url(#pcb0d12a855)" style="fill: none; stroke: #b0b0b0; stroke-opacity: 0.2; stroke-width: 0.8; stroke-linecap: square"/>
     </g>
     <g id="line2d_2">
      <defs>
       <path id="mbda246814f" d="M 0 0 
L 0 3.5 
" style="stroke: #000000; stroke-width: 0.8"/>
      </defs>
      <g>
       <use xlink:href="#mbda246814f" x="58.482599" y="337.68" style="stroke: #000000; stroke-width: 0.8"/>
      </g>
     </g>
     <g id="text_1">
      <!-- tensor -->
      <g transform="translate(28.05186 363.655644) rotate(-22) scale(0.1 -0.1)">
       <defs>
        <path id="DejaVuSans-57" d="M 1172 4494 
L 1172 3500 
L 2356 3500 
L 2356 3053 
L 1172 3053 
L 1172 1153 
Q 1172 725 1289 603 
Q 1406 481 1766 481 
L 2356 481 
L 2356 0 
L 1766 0 
Q 1100 0 847 248 
Q 594 497 594 1153 
L 594 3053 
L 172 3053 
L 172 3500 
L 594 3500 
L 594 4494 
L 1172 4494 
z
" transform="scale(0.015625)"/>
        <path id="DejaVuSans-48" d="M 3597 1894 
L 3597 1613 
L 953 1613 
Q 991 1019 1311 708 
Q 1631 397 2203 397 
Q 2534 397 2845 478 
Q 3156 559 3463 722 
L 3463 178 
Q 3153 47 2828 -22 
Q 2503 -91 2169 -91 
Q 1331 -91 842 396 
Q 353 884 353 1716 
Q 353 2575 817 3079 
Q 1281 3584 2069 3584 
Q 2775 3584 3186 3129 
Q 3597 2675 3597 1894 
z
M 3022 2063 
Q 3016 2534 2758 2815 
Q 2500 3097 2075 3097 
Q 1594 3097 1305 2825 
Q 1016 2553 972 2059 
L 3022 2063 
z
" transform="scale(0.015625)"/>
        <path id="DejaVuSans-51" d="M 3513 2113 
L 3513 0 
L 2938 0 
L 2938 2094 
Q 2938 2591 2744 2837 
Q 2550 3084 2163 3084 
Q 1697 3084 1428 2787 
Q 1159 2491 1159 1978 
L 1159 0 
L 581 0 
L 581 3500 
L 1159 3500 
L 1159 2956 
Q 1366 3272 1645 3428 
Q 1925 3584 2291 3584 
Q 2894 3584 3203 3211 
Q 3513 2838 3513 2113 
z
" transform="scale(0.015625)"/>
        <path id="DejaVuSans-56" d="M 2834 3397 
L 2834 2853 
Q 2591 2978 2328 3040 
Q 2066 3103 1784 3103 
Q 1356 3103 1142 2972 
Q 928 2841 928 2578 
Q 928 2378 1081 2264 
Q 1234 2150 1697 2047 
L 1894 2003 
Q 2506 1872 2764 1633 
Q 3022 1394 3022 966 
Q 3022 478 2636 193 
Q 2250 -91 1575 -91 
Q 1294 -91 989 -36 
Q 684 19 347 128 
L 347 722 
Q 666 556 975 473 
Q 1284 391 1588 391 
Q 1994 391 2212 530 
Q 2431 669 2431 922 
Q 2431 1156 2273 1281 
Q 2116 1406 1581 1522 
L 1381 1569 
Q 847 1681 609 1914 
Q 372 2147 372 2553 
Q 372 3047 722 3315 
Q 1072 3584 1716 3584 
Q 2034 3584 2315 3537 
Q 2597 3491 2834 3397 
z
" transform="scale(0.015625)"/>
        <path id="DejaVuSans-52" d="M 1959 3097 
Q 1497 3097 1228 2736 
Q 959 2375 959 1747 
Q 959 1119 1226 758 
Q 1494 397 1959 397 
Q 2419 397 2687 759 
Q 2956 1122 2956 1747 
Q 2956 2369 2687 2733 
Q 2419 3097 1959 3097 
z
M 1959 3584 
Q 2709 3584 3137 3096 
Q 3566 2609 3566 1747 
Q 3566 888 3137 398 
Q 2709 -91 1959 -91 
Q 1206 -91 779 398 
Q 353 888 353 1747 
Q 353 2609 779 3096 
Q 1206 3584 1959 3584 
z
" transform="scale(0.015625)"/>
        <path id="DejaVuSans-55" d="M 2631 2963 
Q 2534 3019 2420 3045 
Q 2306 3072 2169 3072 
Q 1681 3072 1420 2755 
Q 1159 2438 1159 1844 
L 1159 0 
L 581 0 
L 581 3500 
L 1159 3500 
L 1159 2956 
Q 1341 3275 1631 3429 
Q 1922 3584 2338 3584 
Q 2397 3584 2469 3576 
Q 2541 3569 2628 3553 
L 2631 2963 
z
" transform="scale(0.015625)"/>
       </defs>
       <use xlink:href="#DejaVuSans-57"/>
       <use xlink:href="#DejaVuSans-48" transform="translate(39.203125 0)"/>
       <use xlink:href="#DejaVuSans-51" transform="translate(100.734375 0)"/>
       <use xlink:href="#DejaVuSans-56" transform="translate(164.109375 0)"/>
       <use xlink:href="#DejaVuSans-52" transform="translate(216.203125 0)"/>
       <use xlink:href="#DejaVuSans-55" transform="translate(277.390625 0)"/>
      </g>
     </g>
    </g>
    <g id="xtick_2">
     <g id="line2d_3">
      <path d="M 121.89169 337.68 
L 121.89169 88.2 
" clip-path="url(#pcb0d12a855)" style="fill: none; stroke: #b0b0b0; stroke-opacity: 0.2; stroke-width: 0.8; stroke-linecap: square"/>
     </g>
     <g id="line2d_4">
      <g>
       <use xlink:href="#mbda246814f" x="121.89169" y="337.68" style="stroke: #000000; stroke-width: 0.8"/>
      </g>
     </g>
     <g id="text_2">
      <!-- tile -->
      <g transform="translate(106.500163 357.580133) rotate(-22) scale(0.1 -0.1)">
       <defs>
        <path id="DejaVuSans-4c" d="M 603 3500 
L 1178 3500 
L 1178 0 
L 603 0 
L 603 3500 
z
M 603 4863 
L 1178 4863 
L 1178 4134 
L 603 4134 
L 603 4863 
z
" transform="scale(0.015625)"/>
        <path id="DejaVuSans-4f" d="M 603 4863 
L 1178 4863 
L 1178 0 
L 603 0 
L 603 4863 
z
" transform="scale(0.015625)"/>
       </defs>
       <use xlink:href="#DejaVuSans-57"/>
       <use xlink:href="#DejaVuSans-4c" transform="translate(39.203125 0)"/>
       <use xlink:href="#DejaVuSans-4f" transform="translate(66.984375 0)"/>
       <use xlink:href="#DejaVuSans-48" transform="translate(94.765625 0)"/>
      </g>
     </g>
    </g>
    <g id="xtick_3">
     <g id="line2d_5">
      <path d="M 185.300781 337.68 
L 185.300781 88.2 
" clip-path="url(#pcb0d12a855)" style="fill: none; stroke: #b0b0b0; stroke-opacity: 0.2; stroke-width: 0.8; stroke-linecap: square"/>
     </g>
     <g id="line2d_6">
      <g>
       <use xlink:href="#mbda246814f" x="185.300781" y="337.68" style="stroke: #000000; stroke-width: 0.8"/>
      </g>
     </g>
     <g id="text_3">
      <!-- tile + rotation -->
      <g transform="translate(119.889133 377.789573) rotate(-22) scale(0.1 -0.1)">
       <defs>
        <path id="DejaVuSans-3" transform="scale(0.015625)"/>
        <path id="DejaVuSans-e" d="M 2944 4013 
L 2944 2272 
L 4684 2272 
L 4684 1741 
L 2944 1741 
L 2944 0 
L 2419 0 
L 2419 1741 
L 678 1741 
L 678 2272 
L 2419 2272 
L 2419 4013 
L 2944 4013 
z
" transform="scale(0.015625)"/>
        <path id="DejaVuSans-44" d="M 2194 1759 
Q 1497 1759 1228 1600 
Q 959 1441 959 1056 
Q 959 750 1161 570 
Q 1363 391 1709 391 
Q 2188 391 2477 730 
Q 2766 1069 2766 1631 
L 2766 1759 
L 2194 1759 
z
M 3341 1997 
L 3341 0 
L 2766 0 
L 2766 531 
Q 2569 213 2275 61 
Q 1981 -91 1556 -91 
Q 1019 -91 701 211 
Q 384 513 384 1019 
Q 384 1609 779 1909 
Q 1175 2209 1959 2209 
L 2766 2209 
L 2766 2266 
Q 2766 2663 2505 2880 
Q 2244 3097 1772 3097 
Q 1472 3097 1187 3025 
Q 903 2953 641 2809 
L 641 3341 
Q 956 3463 1253 3523 
Q 1550 3584 1831 3584 
Q 2591 3584 2966 3190 
Q 3341 2797 3341 1997 
z
" transform="scale(0.015625)"/>
       </defs>
       <use xlink:href="#DejaVuSans-57"/>
       <use xlink:href="#DejaVuSans-4c" transform="translate(39.203125 0)"/>
       <use xlink:href="#DejaVuSans-4f" transform="translate(66.984375 0)"/>
       <use xlink:href="#DejaVuSans-48" transform="translate(94.765625 0)"/>
       <use xlink:href="#DejaVuSans-3" transform="translate(156.296875 0)"/>
       <use xlink:href="#DejaVuSans-e" transform="translate(188.078125 0)"/>
       <use xlink:href="#DejaVuSans-3" transform="translate(271.875 0)"/>
       <use xlink:href="#DejaVuSans-55" transform="translate(303.65625 0)"/>
       <use xlink:href="#DejaVuSans-52" transform="translate(342.5625 0)"/>
       <use xlink:href="#DejaVuSans-57" transform="translate(403.75 0)"/>
       <use xlink:href="#DejaVuSans-44" transform="translate(442.953125 0)"/>
       <use xlink:href="#DejaVuSans-57" transform="translate(504.234375 0)"/>
       <use xlink:href="#DejaVuSans-4c" transform="translate(543.4375 0)"/>
       <use xlink:href="#DejaVuSans-52" transform="translate(571.21875 0)"/>
       <use xlink:href="#DejaVuSans-51" transform="translate(632.40625 0)"/>
      </g>
     </g>
    </g>
    <g id="xtick_4">
     <g id="line2d_7">
      <path d="M 248.709872 337.68 
L 248.709872 88.2 
" clip-path="url(#pcb0d12a855)" style="fill: none; stroke: #b0b0b0; stroke-opacity: 0.2; stroke-width: 0.8; stroke-linecap: square"/>
     </g>
     <g id="line2d_8">
      <g>
       <use xlink:href="#mbda246814f" x="248.709872" y="337.68" style="stroke: #000000; stroke-width: 0.8"/>
      </g>
     </g>
     <g id="text_4">
      <!-- smooth K + tile -->
      <g transform="translate(175.909728 380.774719) rotate(-22) scale(0.1 -0.1)">
       <defs>
        <path id="DejaVuSans-50" d="M 3328 2828 
Q 3544 3216 3844 3400 
Q 4144 3584 4550 3584 
Q 5097 3584 5394 3201 
Q 5691 2819 5691 2113 
L 5691 0 
L 5113 0 
L 5113 2094 
Q 5113 2597 4934 2840 
Q 4756 3084 4391 3084 
Q 3944 3084 3684 2787 
Q 3425 2491 3425 1978 
L 3425 0 
L 2847 0 
L 2847 2094 
Q 2847 2600 2669 2842 
Q 2491 3084 2119 3084 
Q 1678 3084 1418 2786 
Q 1159 2488 1159 1978 
L 1159 0 
L 581 0 
L 581 3500 
L 1159 3500 
L 1159 2956 
Q 1356 3278 1631 3431 
Q 1906 3584 2284 3584 
Q 2666 3584 2933 3390 
Q 3200 3197 3328 2828 
z
" transform="scale(0.015625)"/>
        <path id="DejaVuSans-4b" d="M 3513 2113 
L 3513 0 
L 2938 0 
L 2938 2094 
Q 2938 2591 2744 2837 
Q 2550 3084 2163 3084 
Q 1697 3084 1428 2787 
Q 1159 2491 1159 1978 
L 1159 0 
L 581 0 
L 581 4863 
L 1159 4863 
L 1159 2956 
Q 1366 3272 1645 3428 
Q 1925 3584 2291 3584 
Q 2894 3584 3203 3211 
Q 3513 2838 3513 2113 
z
" transform="scale(0.015625)"/>
        <path id="DejaVuSans-2e" d="M 628 4666 
L 1259 4666 
L 1259 2694 
L 3353 4666 
L 4166 4666 
L 1850 2491 
L 4331 0 
L 3500 0 
L 1259 2247 
L 1259 0 
L 628 0 
L 628 4666 
z
" transform="scale(0.015625)"/>
       </defs>
       <use xlink:href="#DejaVuSans-56"/>
       <use xlink:href="#DejaVuSans-50" transform="translate(52.09375 0)"/>
       <use xlink:href="#DejaVuSans-52" transform="translate(149.5 0)"/>
       <use xlink:href="#DejaVuSans-52" transform="translate(210.6875 0)"/>
       <use xlink:href="#DejaVuSans-57" transform="translate(271.875 0)"/>
       <use xlink:href="#DejaVuSans-4b" transform="translate(311.078125 0)"/>
       <use xlink:href="#DejaVuSans-3" transform="translate(374.453125 0)"/>
       <use xlink:href="#DejaVuSans-2e" transform="translate(406.234375 0)"/>
       <use xlink:href="#DejaVuSans-3" transform="translate(471.8125 0)"/>
       <use xlink:href="#DejaVuSans-e" transform="translate(503.59375 0)"/>
       <use xlink:href="#DejaVuSans-3" transform="translate(587.390625 0)"/>
       <use xlink:href="#DejaVuSans-57" transform="translate(619.171875 0)"/>
       <use xlink:href="#DejaVuSans-4c" transform="translate(658.375 0)"/>
       <use xlink:href="#DejaVuSans-4f" transform="translate(686.15625 0)"/>
       <use xlink:href="#DejaVuSans-48" transform="translate(713.9375 0)"/>
      </g>
     </g>
    </g>
    <g id="xtick_5">
     <g id="line2d_9">
      <path d="M 312.118963 337.68 
L 312.118963 88.2 
" clip-path="url(#pcb0d12a855)" style="fill: none; stroke: #b0b0b0; stroke-opacity: 0.2; stroke-width: 0.8; stroke-linecap: square"/>
     </g>
     <g id="line2d_10">
      <g>
       <use xlink:href="#mbda246814f" x="312.118963" y="337.68" style="stroke: #000000; stroke-width: 0.8"/>
      </g>
     </g>
     <g id="text_5">
      <!-- smooth K + tile + rotation -->
      <g transform="translate(189.298699 400.98416) rotate(-22) scale(0.1 -0.1)">
       <use xlink:href="#DejaVuSans-56"/>
       <use xlink:href="#DejaVuSans-50" transform="translate(52.09375 0)"/>
       <use xlink:href="#DejaVuSans-52" transform="translate(149.5 0)"/>
       <use xlink:href="#DejaVuSans-52" transform="translate(210.6875 0)"/>
       <use xlink:href="#DejaVuSans-57" transform="translate(271.875 0)"/>
       <use xlink:href="#DejaVuSans-4b" transform="translate(311.078125 0)"/>
       <use xlink:href="#DejaVuSans-3" transform="translate(374.453125 0)"/>
       <use xlink:href="#DejaVuSans-2e" transform="translate(406.234375 0)"/>
       <use xlink:href="#DejaVuSans-3" transform="translate(471.8125 0)"/>
       <use xlink:href="#DejaVuSans-e" transform="translate(503.59375 0)"/>
       <use xlink:href="#DejaVuSans-3" transform="translate(587.390625 0)"/>
       <use xlink:href="#DejaVuSans-57" transform="translate(619.171875 0)"/>
       <use xlink:href="#DejaVuSans-4c" transform="translate(658.375 0)"/>
       <use xlink:href="#DejaVuSans-4f" transform="translate(686.15625 0)"/>
       <use xlink:href="#DejaVuSans-48" transform="translate(713.9375 0)"/>
       <use xlink:href="#DejaVuSans-3" transform="translate(775.46875 0)"/>
       <use xlink:href="#DejaVuSans-e" transform="translate(807.25 0)"/>
       <use xlink:href="#DejaVuSans-3" transform="translate(891.046875 0)"/>
       <use xlink:href="#DejaVuSans-55" transform="translate(922.828125 0)"/>
       <use xlink:href="#DejaVuSans-52" transform="translate(961.734375 0)"/>
       <use xlink:href="#DejaVuSans-57" transform="translate(1022.921875 0)"/>
       <use xlink:href="#DejaVuSans-44" transform="translate(1062.125 0)"/>
       <use xlink:href="#DejaVuSans-57" transform="translate(1123.40625 0)"/>
       <use xlink:href="#DejaVuSans-4c" transform="translate(1162.609375 0)"/>
       <use xlink:href="#DejaVuSans-52" transform="translate(1190.390625 0)"/>
       <use xlink:href="#DejaVuSans-51" transform="translate(1251.578125 0)"/>
      </g>
     </g>
    </g>
   </g>
   <g id="matplotlib.axis_2">
    <g id="ytick_1">
     <g id="line2d_11">
      <path d="M 45.800781 259.591138 
L 324.800781 259.591138 
" clip-path="url(#pcb0d12a855)" style="fill: none; stroke: #b0b0b0; stroke-opacity: 0.2; stroke-width: 0.8; stroke-linecap: square"/>
     </g>
     <g id="line2d_12">
      <defs>
       <path id="m32ebcff5e3" d="M 0 0 
L -3.5 0 
" style="stroke: #000000; stroke-width: 0.8"/>
      </defs>
      <g>
       <use xlink:href="#m32ebcff5e3" x="45.800781" y="259.591138" style="stroke: #000000; stroke-width: 0.8"/>
      </g>
     </g>
     <g id="text_6">
      <!-- $\mathdefault{10^{1}}$ -->
      <g transform="translate(21.200781 264.241138) scale(0.1 -0.1)">
       <defs>
        <path id="DejaVuSans-14" d="M 794 531 
L 1825 531 
L 1825 4091 
L 703 3866 
L 703 4441 
L 1819 4666 
L 2450 4666 
L 2450 531 
L 3481 531 
L 3481 0 
L 794 0 
L 794 531 
z
" transform="scale(0.015625)"/>
        <path id="DejaVuSans-13" d="M 2034 4250 
Q 1547 4250 1301 3770 
Q 1056 3291 1056 2328 
Q 1056 1369 1301 889 
Q 1547 409 2034 409 
Q 2525 409 2770 889 
Q 3016 1369 3016 2328 
Q 3016 3291 2770 3770 
Q 2525 4250 2034 4250 
z
M 2034 4750 
Q 2819 4750 3233 4129 
Q 3647 3509 3647 2328 
Q 3647 1150 3233 529 
Q 2819 -91 2034 -91 
Q 1250 -91 836 529 
Q 422 1150 422 2328 
Q 422 3509 836 4129 
Q 1250 4750 2034 4750 
z
" transform="scale(0.015625)"/>
       </defs>
       <use xlink:href="#DejaVuSans-14" transform="translate(0 0.665625)"/>
       <use xlink:href="#DejaVuSans-13" transform="translate(63.623047 0.665625)"/>
       <use xlink:href="#DejaVuSans-14" transform="translate(128.203125 41.965625) scale(0.7)"/>
      </g>
     </g>
    </g>
    <g id="ytick_2">
     <g id="line2d_13">
      <path d="M 45.800781 109.791116 
L 324.800781 109.791116 
" clip-path="url(#pcb0d12a855)" style="fill: none; stroke: #b0b0b0; stroke-opacity: 0.2; stroke-width: 0.8; stroke-linecap: square"/>
     </g>
     <g id="line2d_14">
      <g>
       <use xlink:href="#m32ebcff5e3" x="45.800781" y="109.791116" style="stroke: #000000; stroke-width: 0.8"/>
      </g>
     </g>
     <g id="text_7">
      <!-- $\mathdefault{10^{2}}$ -->
      <g transform="translate(21.200781 114.491116) scale(0.1 -0.1)">
       <defs>
        <path id="DejaVuSans-15" d="M 1228 531 
L 3431 531 
L 3431 0 
L 469 0 
L 469 531 
Q 828 903 1448 1529 
Q 2069 2156 2228 2338 
Q 2531 2678 2651 2914 
Q 2772 3150 2772 3378 
Q 2772 3750 2511 3984 
Q 2250 4219 1831 4219 
Q 1534 4219 1204 4116 
Q 875 4013 500 3803 
L 500 4441 
Q 881 4594 1212 4672 
Q 1544 4750 1819 4750 
Q 2544 4750 2975 4387 
Q 3406 4025 3406 3419 
Q 3406 3131 3298 2873 
Q 3191 2616 2906 2266 
Q 2828 2175 2409 1742 
Q 1991 1309 1228 531 
z
" transform="scale(0.015625)"/>
       </defs>
       <use xlink:href="#DejaVuSans-14" transform="translate(0 0.746875)"/>
       <use xlink:href="#DejaVuSans-13" transform="translate(63.623047 0.746875)"/>
       <use xlink:href="#DejaVuSans-15" transform="translate(128.203125 42.046875) scale(0.7)"/>
      </g>
     </g>
    </g>
    <g id="ytick_3">
     <g id="line2d_15">
      <defs>
       <path id="m65859f683d" d="M 0 0 
L -2 0 
" style="stroke: #000000; stroke-width: 0.6"/>
      </defs>
      <g>
       <use xlink:href="#m65859f683d" x="45.800781" y="319.20256" style="stroke: #000000; stroke-width: 0.6"/>
      </g>
     </g>
    </g>
    <g id="ytick_4">
     <g id="line2d_16">
      <g>
       <use xlink:href="#m65859f683d" x="45.800781" y="304.685438" style="stroke: #000000; stroke-width: 0.6"/>
      </g>
     </g>
    </g>
    <g id="ytick_5">
     <g id="line2d_17">
      <g>
       <use xlink:href="#m65859f683d" x="45.800781" y="292.824085" style="stroke: #000000; stroke-width: 0.6"/>
      </g>
     </g>
    </g>
    <g id="ytick_6">
     <g id="line2d_18">
      <g>
       <use xlink:href="#m65859f683d" x="45.800781" y="282.795455" style="stroke: #000000; stroke-width: 0.6"/>
      </g>
     </g>
    </g>
    <g id="ytick_7">
     <g id="line2d_19">
      <g>
       <use xlink:href="#m65859f683d" x="45.800781" y="274.10826" style="stroke: #000000; stroke-width: 0.6"/>
      </g>
     </g>
    </g>
    <g id="ytick_8">
     <g id="line2d_20">
      <g>
       <use xlink:href="#m65859f683d" x="45.800781" y="266.445611" style="stroke: #000000; stroke-width: 0.6"/>
      </g>
     </g>
    </g>
    <g id="ytick_9">
     <g id="line2d_21">
      <g>
       <use xlink:href="#m65859f683d" x="45.800781" y="214.496838" style="stroke: #000000; stroke-width: 0.6"/>
      </g>
     </g>
    </g>
    <g id="ytick_10">
     <g id="line2d_22">
      <g>
       <use xlink:href="#m65859f683d" x="45.800781" y="188.118363" style="stroke: #000000; stroke-width: 0.6"/>
      </g>
     </g>
    </g>
    <g id="ytick_11">
     <g id="line2d_23">
      <g>
       <use xlink:href="#m65859f683d" x="45.800781" y="169.402538" style="stroke: #000000; stroke-width: 0.6"/>
      </g>
     </g>
    </g>
    <g id="ytick_12">
     <g id="line2d_24">
      <g>
       <use xlink:href="#m65859f683d" x="45.800781" y="154.885416" style="stroke: #000000; stroke-width: 0.6"/>
      </g>
     </g>
    </g>
    <g id="ytick_13">
     <g id="line2d_25">
      <g>
       <use xlink:href="#m65859f683d" x="45.800781" y="143.024064" style="stroke: #000000; stroke-width: 0.6"/>
      </g>
     </g>
    </g>
    <g id="ytick_14">
     <g id="line2d_26">
      <g>
       <use xlink:href="#m65859f683d" x="45.800781" y="132.995433" style="stroke: #000000; stroke-width: 0.6"/>
      </g>
     </g>
    </g>
    <g id="ytick_15">
     <g id="line2d_27">
      <g>
       <use xlink:href="#m65859f683d" x="45.800781" y="124.308238" style="stroke: #000000; stroke-width: 0.6"/>
      </g>
     </g>
    </g>
    <g id="ytick_16">
     <g id="line2d_28">
      <g>
       <use xlink:href="#m65859f683d" x="45.800781" y="116.645589" style="stroke: #000000; stroke-width: 0.6"/>
      </g>
     </g>
    </g>
    <g id="text_8">
     <!-- Output relative Frobenius error (%) -->
     <g transform="translate(14.798437 300.379844) rotate(-90) scale(0.1 -0.1)">
      <defs>
       <path id="DejaVuSans-32" d="M 2522 4238 
Q 1834 4238 1429 3725 
Q 1025 3213 1025 2328 
Q 1025 1447 1429 934 
Q 1834 422 2522 422 
Q 3209 422 3611 934 
Q 4013 1447 4013 2328 
Q 4013 3213 3611 3725 
Q 3209 4238 2522 4238 
z
M 2522 4750 
Q 3503 4750 4090 4092 
Q 4678 3434 4678 2328 
Q 4678 1225 4090 567 
Q 3503 -91 2522 -91 
Q 1538 -91 948 565 
Q 359 1222 359 2328 
Q 359 3434 948 4092 
Q 1538 4750 2522 4750 
z
" transform="scale(0.015625)"/>
       <path id="DejaVuSans-58" d="M 544 1381 
L 544 3500 
L 1119 3500 
L 1119 1403 
Q 1119 906 1312 657 
Q 1506 409 1894 409 
Q 2359 409 2629 706 
Q 2900 1003 2900 1516 
L 2900 3500 
L 3475 3500 
L 3475 0 
L 2900 0 
L 2900 538 
Q 2691 219 2414 64 
Q 2138 -91 1772 -91 
Q 1169 -91 856 284 
Q 544 659 544 1381 
z
M 1991 3584 
L 1991 3584 
z
" transform="scale(0.015625)"/>
       <path id="DejaVuSans-53" d="M 1159 525 
L 1159 -1331 
L 581 -1331 
L 581 3500 
L 1159 3500 
L 1159 2969 
Q 1341 3281 1617 3432 
Q 1894 3584 2278 3584 
Q 2916 3584 3314 3078 
Q 3713 2572 3713 1747 
Q 3713 922 3314 415 
Q 2916 -91 2278 -91 
Q 1894 -91 1617 61 
Q 1341 213 1159 525 
z
M 3116 1747 
Q 3116 2381 2855 2742 
Q 2594 3103 2138 3103 
Q 1681 3103 1420 2742 
Q 1159 2381 1159 1747 
Q 1159 1113 1420 752 
Q 1681 391 2138 391 
Q 2594 391 2855 752 
Q 3116 1113 3116 1747 
z
" transform="scale(0.015625)"/>
       <path id="DejaVuSans-59" d="M 191 3500 
L 800 3500 
L 1894 563 
L 2988 3500 
L 3597 3500 
L 2284 0 
L 1503 0 
L 191 3500 
z
" transform="scale(0.015625)"/>
       <path id="DejaVuSans-29" d="M 628 4666 
L 3309 4666 
L 3309 4134 
L 1259 4134 
L 1259 2759 
L 3109 2759 
L 3109 2228 
L 1259 2228 
L 1259 0 
L 628 0 
L 628 4666 
z
" transform="scale(0.015625)"/>
       <path id="DejaVuSans-45" d="M 3116 1747 
Q 3116 2381 2855 2742 
Q 2594 3103 2138 3103 
Q 1681 3103 1420 2742 
Q 1159 2381 1159 1747 
Q 1159 1113 1420 752 
Q 1681 391 2138 391 
Q 2594 391 2855 752 
Q 3116 1113 3116 1747 
z
M 1159 2969 
Q 1341 3281 1617 3432 
Q 1894 3584 2278 3584 
Q 2916 3584 3314 3078 
Q 3713 2572 3713 1747 
Q 3713 922 3314 415 
Q 2916 -91 2278 -91 
Q 1894 -91 1617 61 
Q 1341 213 1159 525 
L 1159 0 
L 581 0 
L 581 4863 
L 1159 4863 
L 1159 2969 
z
" transform="scale(0.015625)"/>
       <path id="DejaVuSans-b" d="M 1984 4856 
Q 1566 4138 1362 3434 
Q 1159 2731 1159 2009 
Q 1159 1288 1364 580 
Q 1569 -128 1984 -844 
L 1484 -844 
Q 1016 -109 783 600 
Q 550 1309 550 2009 
Q 550 2706 781 3412 
Q 1013 4119 1484 4856 
L 1984 4856 
z
" transform="scale(0.015625)"/>
       <path id="DejaVuSans-8" d="M 4653 2053 
Q 4381 2053 4226 1822 
Q 4072 1591 4072 1178 
Q 4072 772 4226 539 
Q 4381 306 4653 306 
Q 4919 306 5073 539 
Q 5228 772 5228 1178 
Q 5228 1588 5073 1820 
Q 4919 2053 4653 2053 
z
M 4653 2450 
Q 5147 2450 5437 2106 
Q 5728 1763 5728 1178 
Q 5728 594 5436 251 
Q 5144 -91 4653 -91 
Q 4153 -91 3862 251 
Q 3572 594 3572 1178 
Q 3572 1766 3864 2108 
Q 4156 2450 4653 2450 
z
M 1428 4353 
Q 1159 4353 1004 4120 
Q 850 3888 850 3481 
Q 850 3069 1003 2837 
Q 1156 2606 1428 2606 
Q 1700 2606 1854 2837 
Q 2009 3069 2009 3481 
Q 2009 3884 1853 4118 
Q 1697 4353 1428 4353 
z
M 4250 4750 
L 4750 4750 
L 1831 -91 
L 1331 -91 
L 4250 4750 
z
M 1428 4750 
Q 1922 4750 2215 4408 
Q 2509 4066 2509 3481 
Q 2509 2891 2217 2550 
Q 1925 2209 1428 2209 
Q 931 2209 642 2551 
Q 353 2894 353 3481 
Q 353 4063 643 4406 
Q 934 4750 1428 4750 
z
" transform="scale(0.015625)"/>
       <path id="DejaVuSans-c" d="M 513 4856 
L 1013 4856 
Q 1481 4119 1714 3412 
Q 1947 2706 1947 2009 
Q 1947 1309 1714 600 
Q 1481 -109 1013 -844 
L 513 -844 
Q 928 -128 1133 580 
Q 1338 1288 1338 2009 
Q 1338 2731 1133 3434 
Q 928 4138 513 4856 
z
" transform="scale(0.015625)"/>
      </defs>
      <use xlink:href="#DejaVuSans-32"/>
      <use xlink:href="#DejaVuSans-58" transform="translate(78.71875 0)"/>
      <use xlink:href="#DejaVuSans-57" transform="translate(142.09375 0)"/>
      <use xlink:href="#DejaVuSans-53" transform="translate(181.296875 0)"/>
      <use xlink:href="#DejaVuSans-58" transform="translate(244.78125 0)"/>
      <use xlink:href="#DejaVuSans-57" transform="translate(308.15625 0)"/>
      <use xlink:href="#DejaVuSans-3" transform="translate(347.359375 0)"/>
      <use xlink:href="#DejaVuSans-55" transform="translate(379.140625 0)"/>
      <use xlink:href="#DejaVuSans-48" transform="translate(418.046875 0)"/>
      <use xlink:href="#DejaVuSans-4f" transform="translate(479.578125 0)"/>
      <use xlink:href="#DejaVuSans-44" transform="translate(507.359375 0)"/>
      <use xlink:href="#DejaVuSans-57" transform="translate(568.640625 0)"/>
      <use xlink:href="#DejaVuSans-4c" transform="translate(607.84375 0)"/>
      <use xlink:href="#DejaVuSans-59" transform="translate(635.625 0)"/>
      <use xlink:href="#DejaVuSans-48" transform="translate(694.8125 0)"/>
      <use xlink:href="#DejaVuSans-3" transform="translate(756.34375 0)"/>
      <use xlink:href="#DejaVuSans-29" transform="translate(788.125 0)"/>
      <use xlink:href="#DejaVuSans-55" transform="translate(838.359375 0)"/>
      <use xlink:href="#DejaVuSans-52" transform="translate(877.265625 0)"/>
      <use xlink:href="#DejaVuSans-45" transform="translate(938.453125 0)"/>
      <use xlink:href="#DejaVuSans-48" transform="translate(1001.9375 0)"/>
      <use xlink:href="#DejaVuSans-51" transform="translate(1063.46875 0)"/>
      <use xlink:href="#DejaVuSans-4c" transform="translate(1126.84375 0)"/>
      <use xlink:href="#DejaVuSans-58" transform="translate(1154.625 0)"/>
      <use xlink:href="#DejaVuSans-56" transform="translate(1218 0)"/>
      <use xlink:href="#DejaVuSans-3" transform="translate(1270.09375 0)"/>
      <use xlink:href="#DejaVuSans-48" transform="translate(1301.875 0)"/>
      <use xlink:href="#DejaVuSans-55" transform="translate(1363.40625 0)"/>
      <use xlink:href="#DejaVuSans-55" transform="translate(1402.765625 0)"/>
      <use xlink:href="#DejaVuSans-52" transform="translate(1441.671875 0)"/>
      <use xlink:href="#DejaVuSans-55" transform="translate(1502.859375 0)"/>
      <use xlink:href="#DejaVuSans-3" transform="translate(1543.96875 0)"/>
      <use xlink:href="#DejaVuSans-b" transform="translate(1575.75 0)"/>
      <use xlink:href="#DejaVuSans-8" transform="translate(1614.765625 0)"/>
      <use xlink:href="#DejaVuSans-c" transform="translate(1709.78125 0)"/>
     </g>
    </g>
   </g>
   <g id="line2d_29">
    <path d="M 58.482599 203.762857 
L 121.89169 203.585504 
L 185.300781 99.54 
L 248.709872 298.640129 
L 312.118963 161.911571 
" clip-path="url(#pcb0d12a855)" style="fill: none; stroke: #34495e; stroke-width: 1.5; stroke-linecap: square"/>
    <defs>
     <path id="m70e382ac68" d="M 0 3 
C 0.795609 3 1.55874 2.683901 2.12132 2.12132 
C 2.683901 1.55874 3 0.795609 3 0 
C 3 -0.795609 2.683901 -1.55874 2.12132 -2.12132 
C 1.55874 -2.683901 0.795609 -3 0 -3 
C -0.795609 -3 -1.55874 -2.683901 -2.12132 -2.12132 
C -2.683901 -1.55874 -3 -0.795609 -3 0 
C -3 0.795609 -2.683901 1.55874 -2.12132 2.12132 
C -1.55874 2.683901 -0.795609 3 0 3 
z
" style="stroke: #34495e"/>
    </defs>
    <g clip-path="url(#pcb0d12a855)">
     <use xlink:href="#m70e382ac68" x="58.482599" y="203.762857" style="fill: #34495e; stroke: #34495e"/>
     <use xlink:href="#m70e382ac68" x="121.89169" y="203.585504" style="fill: #34495e; stroke: #34495e"/>
     <use xlink:href="#m70e382ac68" x="185.300781" y="99.54" style="fill: #34495e; stroke: #34495e"/>
     <use xlink:href="#m70e382ac68" x="248.709872" y="298.640129" style="fill: #34495e; stroke: #34495e"/>
     <use xlink:href="#m70e382ac68" x="312.118963" y="161.911571" style="fill: #34495e; stroke: #34495e"/>
    </g>
   </g>
   <g id="line2d_30">
    <path d="M 58.482599 213.882939 
L 121.89169 210.805748 
L 185.300781 130.039005 
L 248.709872 247.940555 
L 312.118963 194.2056 
" clip-path="url(#pcb0d12a855)" style="fill: none; stroke: #0072b2; stroke-width: 1.5; stroke-linecap: square"/>
    <defs>
     <path id="m93da9fa3be" d="M 0 3 
C 0.795609 3 1.55874 2.683901 2.12132 2.12132 
C 2.683901 1.55874 3 0.795609 3 0 
C 3 -0.795609 2.683901 -1.55874 2.12132 -2.12132 
C 1.55874 -2.683901 0.795609 -3 0 -3 
C -0.795609 -3 -1.55874 -2.683901 -2.12132 -2.12132 
C -2.683901 -1.55874 -3 -0.795609 -3 0 
C -3 0.795609 -2.683901 1.55874 -2.12132 2.12132 
C -1.55874 2.683901 -0.795609 3 0 3 
z
" style="stroke: #0072b2"/>
    </defs>
    <g clip-path="url(#pcb0d12a855)">
     <use xlink:href="#m93da9fa3be" x="58.482599" y="213.882939" style="fill: #0072b2; stroke: #0072b2"/>
     <use xlink:href="#m93da9fa3be" x="121.89169" y="210.805748" style="fill: #0072b2; stroke: #0072b2"/>
     <use xlink:href="#m93da9fa3be" x="185.300781" y="130.039005" style="fill: #0072b2; stroke: #0072b2"/>
     <use xlink:href="#m93da9fa3be" x="248.709872" y="247.940555" style="fill: #0072b2; stroke: #0072b2"/>
     <use xlink:href="#m93da9fa3be" x="312.118963" y="194.2056" style="fill: #0072b2; stroke: #0072b2"/>
    </g>
   </g>
   <g id="line2d_31">
    <path d="M 58.482599 280.764674 
L 121.89169 305.887488 
L 185.300781 319.564701 
L 248.709872 299.388219 
L 312.118963 326.34 
" clip-path="url(#pcb0d12a855)" style="fill: none; stroke: #d55e00; stroke-width: 1.5; stroke-linecap: square"/>
    <defs>
     <path id="m75443fd9da" d="M 0 3 
C 0.795609 3 1.55874 2.683901 2.12132 2.12132 
C 2.683901 1.55874 3 0.795609 3 0 
C 3 -0.795609 2.683901 -1.55874 2.12132 -2.12132 
C 1.55874 -2.683901 0.795609 -3 0 -3 
C -0.795609 -3 -1.55874 -2.683901 -2.12132 -2.12132 
C -2.683901 -1.55874 -3 -0.795609 -3 0 
C -3 0.795609 -2.683901 1.55874 -2.12132 2.12132 
C -1.55874 2.683901 -0.795609 3 0 3 
z
" style="stroke: #d55e00"/>
    </defs>
    <g clip-path="url(#pcb0d12a855)">
     <use xlink:href="#m75443fd9da" x="58.482599" y="280.764674" style="fill: #d55e00; stroke: #d55e00"/>
     <use xlink:href="#m75443fd9da" x="121.89169" y="305.887488" style="fill: #d55e00; stroke: #d55e00"/>
     <use xlink:href="#m75443fd9da" x="185.300781" y="319.564701" style="fill: #d55e00; stroke: #d55e00"/>
     <use xlink:href="#m75443fd9da" x="248.709872" y="299.388219" style="fill: #d55e00; stroke: #d55e00"/>
     <use xlink:href="#m75443fd9da" x="312.118963" y="326.34" style="fill: #d55e00; stroke: #d55e00"/>
    </g>
   </g>
   <g id="line2d_32">
    <path d="M 58.482599 255.842056 
L 121.89169 258.578784 
L 185.300781 273.784415 
L 248.709872 284.861177 
L 312.118963 281.413386 
" clip-path="url(#pcb0d12a855)" style="fill: none; stroke: #cc79a7; stroke-width: 1.5; stroke-linecap: square"/>
    <defs>
     <path id="md7bc3b42ff" d="M 0 3 
C 0.795609 3 1.55874 2.683901 2.12132 2.12132 
C 2.683901 1.55874 3 0.795609 3 0 
C 3 -0.795609 2.683901 -1.55874 2.12132 -2.12132 
C 1.55874 -2.683901 0.795609 -3 0 -3 
C -0.795609 -3 -1.55874 -2.683901 -2.12132 -2.12132 
C -2.683901 -1.55874 -3 -0.795609 -3 0 
C -3 0.795609 -2.683901 1.55874 -2.12132 2.12132 
C -1.55874 2.683901 -0.795609 3 0 3 
z
" style="stroke: #cc79a7"/>
    </defs>
    <g clip-path="url(#pcb0d12a855)">
     <use xlink:href="#md7bc3b42ff" x="58.482599" y="255.842056" style="fill: #cc79a7; stroke: #cc79a7"/>
     <use xlink:href="#md7bc3b42ff" x="121.89169" y="258.578784" style="fill: #cc79a7; stroke: #cc79a7"/>
     <use xlink:href="#md7bc3b42ff" x="185.300781" y="273.784415" style="fill: #cc79a7; stroke: #cc79a7"/>
     <use xlink:href="#md7bc3b42ff" x="248.709872" y="284.861177" style="fill: #cc79a7; stroke: #cc79a7"/>
     <use xlink:href="#md7bc3b42ff" x="312.118963" y="281.413386" style="fill: #cc79a7; stroke: #cc79a7"/>
    </g>
   </g>
   <g id="patch_3">
    <path d="M 45.800781 337.68 
L 45.800781 88.2 
" style="fill: none; stroke: #000000; stroke-width: 0.8; stroke-linejoin: miter; stroke-linecap: square"/>
   </g>
   <g id="patch_4">
    <path d="M 324.800781 337.68 
L 324.800781 88.2 
" style="fill: none; stroke: #000000; stroke-width: 0.8; stroke-linejoin: miter; stroke-linecap: square"/>
   </g>
   <g id="patch_5">
    <path d="M 45.800781 337.68 
L 324.800781 337.68 
" style="fill: none; stroke: #000000; stroke-width: 0.8; stroke-linejoin: miter; stroke-linecap: square"/>
   </g>
   <g id="patch_6">
    <path d="M 45.800781 88.2 
L 324.800781 88.2 
" style="fill: none; stroke: #000000; stroke-width: 0.8; stroke-linejoin: miter; stroke-linecap: square"/>
   </g>
  </g>
  <g id="axes_2">
   <g id="patch_7">
    <path d="M 380.600781 337.68 
L 659.600781 337.68 
L 659.600781 88.2 
L 380.600781 88.2 
z
" style="fill: #ffffff"/>
   </g>
   <g id="matplotlib.axis_3">
    <g id="xtick_6">
     <g id="line2d_33">
      <path d="M 393.282599 337.68 
L 393.282599 88.2 
" clip-path="url(#pf5dbe2e662)" style="fill: none; stroke: #b0b0b0; stroke-opacity: 0.2; stroke-width: 0.8; stroke-linecap: square"/>
     </g>
     <g id="line2d_34">
      <g>
       <use xlink:href="#mbda246814f" x="393.282599" y="337.68" style="stroke: #000000; stroke-width: 0.8"/>
      </g>
     </g>
     <g id="text_9">
      <!-- tensor -->
      <g transform="translate(362.85186 363.655644) rotate(-22) scale(0.1 -0.1)">
       <use xlink:href="#DejaVuSans-57"/>
       <use xlink:href="#DejaVuSans-48" transform="translate(39.203125 0)"/>
       <use xlink:href="#DejaVuSans-51" transform="translate(100.734375 0)"/>
       <use xlink:href="#DejaVuSans-56" transform="translate(164.109375 0)"/>
       <use xlink:href="#DejaVuSans-52" transform="translate(216.203125 0)"/>
       <use xlink:href="#DejaVuSans-55" transform="translate(277.390625 0)"/>
      </g>
     </g>
    </g>
    <g id="xtick_7">
     <g id="line2d_35">
      <path d="M 456.69169 337.68 
L 456.69169 88.2 
" clip-path="url(#pf5dbe2e662)" style="fill: none; stroke: #b0b0b0; stroke-opacity: 0.2; stroke-width: 0.8; stroke-linecap: square"/>
     </g>
     <g id="line2d_36">
      <g>
       <use xlink:href="#mbda246814f" x="456.69169" y="337.68" style="stroke: #000000; stroke-width: 0.8"/>
      </g>
     </g>
     <g id="text_10">
      <!-- tile -->
      <g transform="translate(441.300163 357.580133) rotate(-22) scale(0.1 -0.1)">
       <use xlink:href="#DejaVuSans-57"/>
       <use xlink:href="#DejaVuSans-4c" transform="translate(39.203125 0)"/>
       <use xlink:href="#DejaVuSans-4f" transform="translate(66.984375 0)"/>
       <use xlink:href="#DejaVuSans-48" transform="translate(94.765625 0)"/>
      </g>
     </g>
    </g>
    <g id="xtick_8">
     <g id="line2d_37">
      <path d="M 520.100781 337.68 
L 520.100781 88.2 
" clip-path="url(#pf5dbe2e662)" style="fill: none; stroke: #b0b0b0; stroke-opacity: 0.2; stroke-width: 0.8; stroke-linecap: square"/>
     </g>
     <g id="line2d_38">
      <g>
       <use xlink:href="#mbda246814f" x="520.100781" y="337.68" style="stroke: #000000; stroke-width: 0.8"/>
      </g>
     </g>
     <g id="text_11">
      <!-- tile + rotation -->
      <g transform="translate(454.689133 377.789573) rotate(-22) scale(0.1 -0.1)">
       <use xlink:href="#DejaVuSans-57"/>
       <use xlink:href="#DejaVuSans-4c" transform="translate(39.203125 0)"/>
       <use xlink:href="#DejaVuSans-4f" transform="translate(66.984375 0)"/>
       <use xlink:href="#DejaVuSans-48" transform="translate(94.765625 0)"/>
       <use xlink:href="#DejaVuSans-3" transform="translate(156.296875 0)"/>
       <use xlink:href="#DejaVuSans-e" transform="translate(188.078125 0)"/>
       <use xlink:href="#DejaVuSans-3" transform="translate(271.875 0)"/>
       <use xlink:href="#DejaVuSans-55" transform="translate(303.65625 0)"/>
       <use xlink:href="#DejaVuSans-52" transform="translate(342.5625 0)"/>
       <use xlink:href="#DejaVuSans-57" transform="translate(403.75 0)"/>
       <use xlink:href="#DejaVuSans-44" transform="translate(442.953125 0)"/>
       <use xlink:href="#DejaVuSans-57" transform="translate(504.234375 0)"/>
       <use xlink:href="#DejaVuSans-4c" transform="translate(543.4375 0)"/>
       <use xlink:href="#DejaVuSans-52" transform="translate(571.21875 0)"/>
       <use xlink:href="#DejaVuSans-51" transform="translate(632.40625 0)"/>
      </g>
     </g>
    </g>
    <g id="xtick_9">
     <g id="line2d_39">
      <path d="M 583.509872 337.68 
L 583.509872 88.2 
" clip-path="url(#pf5dbe2e662)" style="fill: none; stroke: #b0b0b0; stroke-opacity: 0.2; stroke-width: 0.8; stroke-linecap: square"/>
     </g>
     <g id="line2d_40">
      <g>
       <use xlink:href="#mbda246814f" x="583.509872" y="337.68" style="stroke: #000000; stroke-width: 0.8"/>
      </g>
     </g>
     <g id="text_12">
      <!-- smooth K + tile -->
      <g transform="translate(510.709728 380.774719) rotate(-22) scale(0.1 -0.1)">
       <use xlink:href="#DejaVuSans-56"/>
       <use xlink:href="#DejaVuSans-50" transform="translate(52.09375 0)"/>
       <use xlink:href="#DejaVuSans-52" transform="translate(149.5 0)"/>
       <use xlink:href="#DejaVuSans-52" transform="translate(210.6875 0)"/>
       <use xlink:href="#DejaVuSans-57" transform="translate(271.875 0)"/>
       <use xlink:href="#DejaVuSans-4b" transform="translate(311.078125 0)"/>
       <use xlink:href="#DejaVuSans-3" transform="translate(374.453125 0)"/>
       <use xlink:href="#DejaVuSans-2e" transform="translate(406.234375 0)"/>
       <use xlink:href="#DejaVuSans-3" transform="translate(471.8125 0)"/>
       <use xlink:href="#DejaVuSans-e" transform="translate(503.59375 0)"/>
       <use xlink:href="#DejaVuSans-3" transform="translate(587.390625 0)"/>
       <use xlink:href="#DejaVuSans-57" transform="translate(619.171875 0)"/>
       <use xlink:href="#DejaVuSans-4c" transform="translate(658.375 0)"/>
       <use xlink:href="#DejaVuSans-4f" transform="translate(686.15625 0)"/>
       <use xlink:href="#DejaVuSans-48" transform="translate(713.9375 0)"/>
      </g>
     </g>
    </g>
    <g id="xtick_10">
     <g id="line2d_41">
      <path d="M 646.918963 337.68 
L 646.918963 88.2 
" clip-path="url(#pf5dbe2e662)" style="fill: none; stroke: #b0b0b0; stroke-opacity: 0.2; stroke-width: 0.8; stroke-linecap: square"/>
     </g>
     <g id="line2d_42">
      <g>
       <use xlink:href="#mbda246814f" x="646.918963" y="337.68" style="stroke: #000000; stroke-width: 0.8"/>
      </g>
     </g>
     <g id="text_13">
      <!-- smooth K + tile + rotation -->
      <g transform="translate(524.098699 400.98416) rotate(-22) scale(0.1 -0.1)">
       <use xlink:href="#DejaVuSans-56"/>
       <use xlink:href="#DejaVuSans-50" transform="translate(52.09375 0)"/>
       <use xlink:href="#DejaVuSans-52" transform="translate(149.5 0)"/>
       <use xlink:href="#DejaVuSans-52" transform="translate(210.6875 0)"/>
       <use xlink:href="#DejaVuSans-57" transform="translate(271.875 0)"/>
       <use xlink:href="#DejaVuSans-4b" transform="translate(311.078125 0)"/>
       <use xlink:href="#DejaVuSans-3" transform="translate(374.453125 0)"/>
       <use xlink:href="#DejaVuSans-2e" transform="translate(406.234375 0)"/>
       <use xlink:href="#DejaVuSans-3" transform="translate(471.8125 0)"/>
       <use xlink:href="#DejaVuSans-e" transform="translate(503.59375 0)"/>
       <use xlink:href="#DejaVuSans-3" transform="translate(587.390625 0)"/>
       <use xlink:href="#DejaVuSans-57" transform="translate(619.171875 0)"/>
       <use xlink:href="#DejaVuSans-4c" transform="translate(658.375 0)"/>
       <use xlink:href="#DejaVuSans-4f" transform="translate(686.15625 0)"/>
       <use xlink:href="#DejaVuSans-48" transform="translate(713.9375 0)"/>
       <use xlink:href="#DejaVuSans-3" transform="translate(775.46875 0)"/>
       <use xlink:href="#DejaVuSans-e" transform="translate(807.25 0)"/>
       <use xlink:href="#DejaVuSans-3" transform="translate(891.046875 0)"/>
       <use xlink:href="#DejaVuSans-55" transform="translate(922.828125 0)"/>
       <use xlink:href="#DejaVuSans-52" transform="translate(961.734375 0)"/>
       <use xlink:href="#DejaVuSans-57" transform="translate(1022.921875 0)"/>
       <use xlink:href="#DejaVuSans-44" transform="translate(1062.125 0)"/>
       <use xlink:href="#DejaVuSans-57" transform="translate(1123.40625 0)"/>
       <use xlink:href="#DejaVuSans-4c" transform="translate(1162.609375 0)"/>
       <use xlink:href="#DejaVuSans-52" transform="translate(1190.390625 0)"/>
       <use xlink:href="#DejaVuSans-51" transform="translate(1251.578125 0)"/>
      </g>
     </g>
    </g>
   </g>
   <g id="matplotlib.axis_4">
    <g id="ytick_17">
     <g id="line2d_43">
      <path d="M 380.600781 337.68 
L 659.600781 337.68 
" clip-path="url(#pf5dbe2e662)" style="fill: none; stroke: #b0b0b0; stroke-opacity: 0.2; stroke-width: 0.8; stroke-linecap: square"/>
     </g>
     <g id="line2d_44">
      <g>
       <use xlink:href="#m32ebcff5e3" x="380.600781" y="337.68" style="stroke: #000000; stroke-width: 0.8"/>
      </g>
     </g>
     <g id="text_14">
      <!-- 0.0 -->
      <g transform="translate(357.697656 341.478828) scale(0.1 -0.1)">
       <defs>
        <path id="DejaVuSans-11" d="M 684 794 
L 1344 794 
L 1344 0 
L 684 0 
L 684 794 
z
" transform="scale(0.015625)"/>
       </defs>
       <use xlink:href="#DejaVuSans-13"/>
       <use xlink:href="#DejaVuSans-11" transform="translate(63.625 0)"/>
       <use xlink:href="#DejaVuSans-13" transform="translate(95.40625 0)"/>
      </g>
     </g>
    </g>
    <g id="ytick_18">
     <g id="line2d_45">
      <path d="M 380.600781 287.784 
L 659.600781 287.784 
" clip-path="url(#pf5dbe2e662)" style="fill: none; stroke: #b0b0b0; stroke-opacity: 0.2; stroke-width: 0.8; stroke-linecap: square"/>
     </g>
     <g id="line2d_46">
      <g>
       <use xlink:href="#m32ebcff5e3" x="380.600781" y="287.784" style="stroke: #000000; stroke-width: 0.8"/>
      </g>
     </g>
     <g id="text_15">
      <!-- 0.2 -->
      <g transform="translate(357.697656 291.582828) scale(0.1 -0.1)">
       <use xlink:href="#DejaVuSans-13"/>
       <use xlink:href="#DejaVuSans-11" transform="translate(63.625 0)"/>
       <use xlink:href="#DejaVuSans-15" transform="translate(95.40625 0)"/>
      </g>
     </g>
    </g>
    <g id="ytick_19">
     <g id="line2d_47">
      <path d="M 380.600781 237.888 
L 659.600781 237.888 
" clip-path="url(#pf5dbe2e662)" style="fill: none; stroke: #b0b0b0; stroke-opacity: 0.2; stroke-width: 0.8; stroke-linecap: square"/>
     </g>
     <g id="line2d_48">
      <g>
       <use xlink:href="#m32ebcff5e3" x="380.600781" y="237.888" style="stroke: #000000; stroke-width: 0.8"/>
      </g>
     </g>
     <g id="text_16">
      <!-- 0.4 -->
      <g transform="translate(357.697656 241.686828) scale(0.1 -0.1)">
       <defs>
        <path id="DejaVuSans-17" d="M 2419 4116 
L 825 1625 
L 2419 1625 
L 2419 4116 
z
M 2253 4666 
L 3047 4666 
L 3047 1625 
L 3713 1625 
L 3713 1100 
L 3047 1100 
L 3047 0 
L 2419 0 
L 2419 1100 
L 313 1100 
L 313 1709 
L 2253 4666 
z
" transform="scale(0.015625)"/>
       </defs>
       <use xlink:href="#DejaVuSans-13"/>
       <use xlink:href="#DejaVuSans-11" transform="translate(63.625 0)"/>
       <use xlink:href="#DejaVuSans-17" transform="translate(95.40625 0)"/>
      </g>
     </g>
    </g>
    <g id="ytick_20">
     <g id="line2d_49">
      <path d="M 380.600781 187.992 
L 659.600781 187.992 
" clip-path="url(#pf5dbe2e662)" style="fill: none; stroke: #b0b0b0; stroke-opacity: 0.2; stroke-width: 0.8; stroke-linecap: square"/>
     </g>
     <g id="line2d_50">
      <g>
       <use xlink:href="#m32ebcff5e3" x="380.600781" y="187.992" style="stroke: #000000; stroke-width: 0.8"/>
      </g>
     </g>
     <g id="text_17">
      <!-- 0.6 -->
      <g transform="translate(357.697656 191.790828) scale(0.1 -0.1)">
       <defs>
        <path id="DejaVuSans-19" d="M 2113 2584 
Q 1688 2584 1439 2293 
Q 1191 2003 1191 1497 
Q 1191 994 1439 701 
Q 1688 409 2113 409 
Q 2538 409 2786 701 
Q 3034 994 3034 1497 
Q 3034 2003 2786 2293 
Q 2538 2584 2113 2584 
z
M 3366 4563 
L 3366 3988 
Q 3128 4100 2886 4159 
Q 2644 4219 2406 4219 
Q 1781 4219 1451 3797 
Q 1122 3375 1075 2522 
Q 1259 2794 1537 2939 
Q 1816 3084 2150 3084 
Q 2853 3084 3261 2657 
Q 3669 2231 3669 1497 
Q 3669 778 3244 343 
Q 2819 -91 2113 -91 
Q 1303 -91 875 529 
Q 447 1150 447 2328 
Q 447 3434 972 4092 
Q 1497 4750 2381 4750 
Q 2619 4750 2861 4703 
Q 3103 4656 3366 4563 
z
" transform="scale(0.015625)"/>
       </defs>
       <use xlink:href="#DejaVuSans-13"/>
       <use xlink:href="#DejaVuSans-11" transform="translate(63.625 0)"/>
       <use xlink:href="#DejaVuSans-19" transform="translate(95.40625 0)"/>
      </g>
     </g>
    </g>
    <g id="ytick_21">
     <g id="line2d_51">
      <path d="M 380.600781 138.096 
L 659.600781 138.096 
" clip-path="url(#pf5dbe2e662)" style="fill: none; stroke: #b0b0b0; stroke-opacity: 0.2; stroke-width: 0.8; stroke-linecap: square"/>
     </g>
     <g id="line2d_52">
      <g>
       <use xlink:href="#m32ebcff5e3" x="380.600781" y="138.096" style="stroke: #000000; stroke-width: 0.8"/>
      </g>
     </g>
     <g id="text_18">
      <!-- 0.8 -->
      <g transform="translate(357.697656 141.894828) scale(0.1 -0.1)">
       <defs>
        <path id="DejaVuSans-1b" d="M 2034 2216 
Q 1584 2216 1326 1975 
Q 1069 1734 1069 1313 
Q 1069 891 1326 650 
Q 1584 409 2034 409 
Q 2484 409 2743 651 
Q 3003 894 3003 1313 
Q 3003 1734 2745 1975 
Q 2488 2216 2034 2216 
z
M 1403 2484 
Q 997 2584 770 2862 
Q 544 3141 544 3541 
Q 544 4100 942 4425 
Q 1341 4750 2034 4750 
Q 2731 4750 3128 4425 
Q 3525 4100 3525 3541 
Q 3525 3141 3298 2862 
Q 3072 2584 2669 2484 
Q 3125 2378 3379 2068 
Q 3634 1759 3634 1313 
Q 3634 634 3220 271 
Q 2806 -91 2034 -91 
Q 1263 -91 848 271 
Q 434 634 434 1313 
Q 434 1759 690 2068 
Q 947 2378 1403 2484 
z
M 1172 3481 
Q 1172 3119 1398 2916 
Q 1625 2713 2034 2713 
Q 2441 2713 2670 2916 
Q 2900 3119 2900 3481 
Q 2900 3844 2670 4047 
Q 2441 4250 2034 4250 
Q 1625 4250 1398 4047 
Q 1172 3844 1172 3481 
z
" transform="scale(0.015625)"/>
       </defs>
       <use xlink:href="#DejaVuSans-13"/>
       <use xlink:href="#DejaVuSans-11" transform="translate(63.625 0)"/>
       <use xlink:href="#DejaVuSans-1b" transform="translate(95.40625 0)"/>
      </g>
     </g>
    </g>
    <g id="ytick_22">
     <g id="line2d_53">
      <path d="M 380.600781 88.2 
L 659.600781 88.2 
" clip-path="url(#pf5dbe2e662)" style="fill: none; stroke: #b0b0b0; stroke-opacity: 0.2; stroke-width: 0.8; stroke-linecap: square"/>
     </g>
     <g id="line2d_54">
      <g>
       <use xlink:href="#m32ebcff5e3" x="380.600781" y="88.2" style="stroke: #000000; stroke-width: 0.8"/>
      </g>
     </g>
     <g id="text_19">
      <!-- 1.0 -->
      <g transform="translate(357.697656 91.998828) scale(0.1 -0.1)">
       <use xlink:href="#DejaVuSans-14"/>
       <use xlink:href="#DejaVuSans-11" transform="translate(63.625 0)"/>
       <use xlink:href="#DejaVuSans-13" transform="translate(95.40625 0)"/>
      </g>
     </g>
    </g>
    <g id="text_20">
     <!-- Mean probability total variation (0–1) -->
     <g transform="translate(351.295312 305.904062) rotate(-90) scale(0.1 -0.1)">
      <defs>
       <path id="DejaVuSans-30" d="M 628 4666 
L 1569 4666 
L 2759 1491 
L 3956 4666 
L 4897 4666 
L 4897 0 
L 4281 0 
L 4281 4097 
L 3078 897 
L 2444 897 
L 1241 4097 
L 1241 0 
L 628 0 
L 628 4666 
z
" transform="scale(0.015625)"/>
       <path id="DejaVuSans-5c" d="M 2059 -325 
Q 1816 -950 1584 -1140 
Q 1353 -1331 966 -1331 
L 506 -1331 
L 506 -850 
L 844 -850 
Q 1081 -850 1212 -737 
Q 1344 -625 1503 -206 
L 1606 56 
L 191 3500 
L 800 3500 
L 1894 763 
L 2988 3500 
L 3597 3500 
L 2059 -325 
z
" transform="scale(0.015625)"/>
       <path id="DejaVuSans-af5" d="M 313 1978 
L 2888 1978 
L 2888 1528 
L 313 1528 
L 313 1978 
z
" transform="scale(0.015625)"/>
      </defs>
      <use xlink:href="#DejaVuSans-30"/>
      <use xlink:href="#DejaVuSans-48" transform="translate(86.28125 0)"/>
      <use xlink:href="#DejaVuSans-44" transform="translate(147.8125 0)"/>
      <use xlink:href="#DejaVuSans-51" transform="translate(209.09375 0)"/>
      <use xlink:href="#DejaVuSans-3" transform="translate(272.46875 0)"/>
      <use xlink:href="#DejaVuSans-53" transform="translate(304.25 0)"/>
      <use xlink:href="#DejaVuSans-55" transform="translate(367.734375 0)"/>
      <use xlink:href="#DejaVuSans-52" transform="translate(406.640625 0)"/>
      <use xlink:href="#DejaVuSans-45" transform="translate(467.828125 0)"/>
      <use xlink:href="#DejaVuSans-44" transform="translate(531.3125 0)"/>
      <use xlink:href="#DejaVuSans-45" transform="translate(592.59375 0)"/>
      <use xlink:href="#DejaVuSans-4c" transform="translate(656.078125 0)"/>
      <use xlink:href="#DejaVuSans-4f" transform="translate(683.859375 0)"/>
      <use xlink:href="#DejaVuSans-4c" transform="translate(711.640625 0)"/>
      <use xlink:href="#DejaVuSans-57" transform="translate(739.421875 0)"/>
      <use xlink:href="#DejaVuSans-5c" transform="translate(778.625 0)"/>
      <use xlink:href="#DejaVuSans-3" transform="translate(837.8125 0)"/>
      <use xlink:href="#DejaVuSans-57" transform="translate(869.59375 0)"/>
      <use xlink:href="#DejaVuSans-52" transform="translate(908.796875 0)"/>
      <use xlink:href="#DejaVuSans-57" transform="translate(969.984375 0)"/>
      <use xlink:href="#DejaVuSans-44" transform="translate(1009.1875 0)"/>
      <use xlink:href="#DejaVuSans-4f" transform="translate(1070.46875 0)"/>
      <use xlink:href="#DejaVuSans-3" transform="translate(1098.25 0)"/>
      <use xlink:href="#DejaVuSans-59" transform="translate(1130.03125 0)"/>
      <use xlink:href="#DejaVuSans-44" transform="translate(1189.21875 0)"/>
      <use xlink:href="#DejaVuSans-55" transform="translate(1250.5 0)"/>
      <use xlink:href="#DejaVuSans-4c" transform="translate(1291.609375 0)"/>
      <use xlink:href="#DejaVuSans-44" transform="translate(1319.390625 0)"/>
      <use xlink:href="#DejaVuSans-57" transform="translate(1380.671875 0)"/>
      <use xlink:href="#DejaVuSans-4c" transform="translate(1419.875 0)"/>
      <use xlink:href="#DejaVuSans-52" transform="translate(1447.65625 0)"/>
      <use xlink:href="#DejaVuSans-51" transform="translate(1508.84375 0)"/>
      <use xlink:href="#DejaVuSans-3" transform="translate(1572.21875 0)"/>
      <use xlink:href="#DejaVuSans-b" transform="translate(1604 0)"/>
      <use xlink:href="#DejaVuSans-13" transform="translate(1643.015625 0)"/>
      <use xlink:href="#DejaVuSans-af5" transform="translate(1706.640625 0)"/>
      <use xlink:href="#DejaVuSans-14" transform="translate(1756.640625 0)"/>
      <use xlink:href="#DejaVuSans-c" transform="translate(1820.265625 0)"/>
     </g>
    </g>
   </g>
   <g id="line2d_55">
    <path d="M 393.282599 295.191271 
L 456.69169 295.149184 
L 520.100781 113.268003 
L 583.509872 328.699459 
L 646.918963 242.956247 
" clip-path="url(#pf5dbe2e662)" style="fill: none; stroke: #34495e; stroke-width: 1.5; stroke-linecap: square"/>
    <g clip-path="url(#pf5dbe2e662)">
     <use xlink:href="#m70e382ac68" x="393.282599" y="295.191271" style="fill: #34495e; stroke: #34495e"/>
     <use xlink:href="#m70e382ac68" x="456.69169" y="295.149184" style="fill: #34495e; stroke: #34495e"/>
     <use xlink:href="#m70e382ac68" x="520.100781" y="113.268003" style="fill: #34495e; stroke: #34495e"/>
     <use xlink:href="#m70e382ac68" x="583.509872" y="328.699459" style="fill: #34495e; stroke: #34495e"/>
     <use xlink:href="#m70e382ac68" x="646.918963" y="242.956247" style="fill: #34495e; stroke: #34495e"/>
    </g>
   </g>
   <g id="line2d_56">
    <path d="M 393.282599 310.725106 
L 456.69169 309.156412 
L 520.100781 219.583239 
L 583.509872 321.154703 
L 646.918963 297.951252 
" clip-path="url(#pf5dbe2e662)" style="fill: none; stroke: #0072b2; stroke-width: 1.5; stroke-linecap: square"/>
    <g clip-path="url(#pf5dbe2e662)">
     <use xlink:href="#m93da9fa3be" x="393.282599" y="310.725106" style="fill: #0072b2; stroke: #0072b2"/>
     <use xlink:href="#m93da9fa3be" x="456.69169" y="309.156412" style="fill: #0072b2; stroke: #0072b2"/>
     <use xlink:href="#m93da9fa3be" x="520.100781" y="219.583239" style="fill: #0072b2; stroke: #0072b2"/>
     <use xlink:href="#m93da9fa3be" x="583.509872" y="321.154703" style="fill: #0072b2; stroke: #0072b2"/>
     <use xlink:href="#m93da9fa3be" x="646.918963" y="297.951252" style="fill: #0072b2; stroke: #0072b2"/>
    </g>
   </g>
   <g id="line2d_57">
    <path d="M 393.282599 325.88684 
L 456.69169 329.635431 
L 520.100781 332.114477 
L 583.509872 328.889282 
L 646.918963 332.978381 
" clip-path="url(#pf5dbe2e662)" style="fill: none; stroke: #d55e00; stroke-width: 1.5; stroke-linecap: square"/>
    <g clip-path="url(#pf5dbe2e662)">
     <use xlink:href="#m75443fd9da" x="393.282599" y="325.88684" style="fill: #d55e00; stroke: #d55e00"/>
     <use xlink:href="#m75443fd9da" x="456.69169" y="329.635431" style="fill: #d55e00; stroke: #d55e00"/>
     <use xlink:href="#m75443fd9da" x="520.100781" y="332.114477" style="fill: #d55e00; stroke: #d55e00"/>
     <use xlink:href="#m75443fd9da" x="583.509872" y="328.889282" style="fill: #d55e00; stroke: #d55e00"/>
     <use xlink:href="#m75443fd9da" x="646.918963" y="332.978381" style="fill: #d55e00; stroke: #d55e00"/>
    </g>
   </g>
   <g id="line2d_58">
    <path d="M 393.282599 318.885591 
L 456.69169 319.933837 
L 520.100781 324.663222 
L 583.509872 327.267132 
L 646.918963 326.400285 
" clip-path="url(#pf5dbe2e662)" style="fill: none; stroke: #cc79a7; stroke-width: 1.5; stroke-linecap: square"/>
    <g clip-path="url(#pf5dbe2e662)">
     <use xlink:href="#md7bc3b42ff" x="393.282599" y="318.885591" style="fill: #cc79a7; stroke: #cc79a7"/>
     <use xlink:href="#md7bc3b42ff" x="456.69169" y="319.933837" style="fill: #cc79a7; stroke: #cc79a7"/>
     <use xlink:href="#md7bc3b42ff" x="520.100781" y="324.663222" style="fill: #cc79a7; stroke: #cc79a7"/>
     <use xlink:href="#md7bc3b42ff" x="583.509872" y="327.267132" style="fill: #cc79a7; stroke: #cc79a7"/>
     <use xlink:href="#md7bc3b42ff" x="646.918963" y="326.400285" style="fill: #cc79a7; stroke: #cc79a7"/>
    </g>
   </g>
   <g id="patch_8">
    <path d="M 380.600781 337.68 
L 380.600781 88.2 
" style="fill: none; stroke: #000000; stroke-width: 0.8; stroke-linejoin: miter; stroke-linecap: square"/>
   </g>
   <g id="patch_9">
    <path d="M 659.600781 337.68 
L 659.600781 88.2 
" style="fill: none; stroke: #000000; stroke-width: 0.8; stroke-linejoin: miter; stroke-linecap: square"/>
   </g>
   <g id="patch_10">
    <path d="M 380.600781 337.68 
L 659.600781 337.68 
" style="fill: none; stroke: #000000; stroke-width: 0.8; stroke-linejoin: miter; stroke-linecap: square"/>
   </g>
   <g id="patch_11">
    <path d="M 380.600781 88.2 
L 659.600781 88.2 
" style="fill: none; stroke: #000000; stroke-width: 0.8; stroke-linejoin: miter; stroke-linecap: square"/>
   </g>
  </g>
  <g id="text_21">
   <!-- Key centering only partly repairs layer-0 rotation errors -->
   <g transform="translate(177.174531 16.318125) scale(0.12 -0.12)">
    <defs>
     <path id="DejaVuSans-46" d="M 3122 3366 
L 3122 2828 
Q 2878 2963 2633 3030 
Q 2388 3097 2138 3097 
Q 1578 3097 1268 2742 
Q 959 2388 959 1747 
Q 959 1106 1268 751 
Q 1578 397 2138 397 
Q 2388 397 2633 464 
Q 2878 531 3122 666 
L 3122 134 
Q 2881 22 2623 -34 
Q 2366 -91 2075 -91 
Q 1284 -91 818 406 
Q 353 903 353 1747 
Q 353 2603 823 3093 
Q 1294 3584 2113 3584 
Q 2378 3584 2631 3529 
Q 2884 3475 3122 3366 
z
" transform="scale(0.015625)"/>
     <path id="DejaVuSans-4a" d="M 2906 1791 
Q 2906 2416 2648 2759 
Q 2391 3103 1925 3103 
Q 1463 3103 1205 2759 
Q 947 2416 947 1791 
Q 947 1169 1205 825 
Q 1463 481 1925 481 
Q 2391 481 2648 825 
Q 2906 1169 2906 1791 
z
M 3481 434 
Q 3481 -459 3084 -895 
Q 2688 -1331 1869 -1331 
Q 1566 -1331 1297 -1286 
Q 1028 -1241 775 -1147 
L 775 -588 
Q 1028 -725 1275 -790 
Q 1522 -856 1778 -856 
Q 2344 -856 2625 -561 
Q 2906 -266 2906 331 
L 2906 616 
Q 2728 306 2450 153 
Q 2172 0 1784 0 
Q 1141 0 747 490 
Q 353 981 353 1791 
Q 353 2603 747 3093 
Q 1141 3584 1784 3584 
Q 2172 3584 2450 3431 
Q 2728 3278 2906 2969 
L 2906 3500 
L 3481 3500 
L 3481 434 
z
" transform="scale(0.015625)"/>
     <path id="DejaVuSans-10" d="M 313 2009 
L 1997 2009 
L 1997 1497 
L 313 1497 
L 313 2009 
z
" transform="scale(0.015625)"/>
    </defs>
    <use xlink:href="#DejaVuSans-2e"/>
    <use xlink:href="#DejaVuSans-48" transform="translate(60.59375 0)"/>
    <use xlink:href="#DejaVuSans-5c" transform="translate(122.125 0)"/>
    <use xlink:href="#DejaVuSans-3" transform="translate(181.3125 0)"/>
    <use xlink:href="#DejaVuSans-46" transform="translate(213.09375 0)"/>
    <use xlink:href="#DejaVuSans-48" transform="translate(268.078125 0)"/>
    <use xlink:href="#DejaVuSans-51" transform="translate(329.609375 0)"/>
    <use xlink:href="#DejaVuSans-57" transform="translate(392.984375 0)"/>
    <use xlink:href="#DejaVuSans-48" transform="translate(432.1875 0)"/>
    <use xlink:href="#DejaVuSans-55" transform="translate(493.71875 0)"/>
    <use xlink:href="#DejaVuSans-4c" transform="translate(534.828125 0)"/>
    <use xlink:href="#DejaVuSans-51" transform="translate(562.609375 0)"/>
    <use xlink:href="#DejaVuSans-4a" transform="translate(625.984375 0)"/>
    <use xlink:href="#DejaVuSans-3" transform="translate(689.46875 0)"/>
    <use xlink:href="#DejaVuSans-52" transform="translate(721.25 0)"/>
    <use xlink:href="#DejaVuSans-51" transform="translate(782.4375 0)"/>
    <use xlink:href="#DejaVuSans-4f" transform="translate(845.8125 0)"/>
    <use xlink:href="#DejaVuSans-5c" transform="translate(873.59375 0)"/>
    <use xlink:href="#DejaVuSans-3" transform="translate(932.78125 0)"/>
    <use xlink:href="#DejaVuSans-53" transform="translate(964.5625 0)"/>
    <use xlink:href="#DejaVuSans-44" transform="translate(1028.046875 0)"/>
    <use xlink:href="#DejaVuSans-55" transform="translate(1089.328125 0)"/>
    <use xlink:href="#DejaVuSans-57" transform="translate(1130.4375 0)"/>
    <use xlink:href="#DejaVuSans-4f" transform="translate(1169.640625 0)"/>
    <use xlink:href="#DejaVuSans-5c" transform="translate(1197.421875 0)"/>
    <use xlink:href="#DejaVuSans-3" transform="translate(1256.609375 0)"/>
    <use xlink:href="#DejaVuSans-55" transform="translate(1288.390625 0)"/>
    <use xlink:href="#DejaVuSans-48" transform="translate(1327.296875 0)"/>
    <use xlink:href="#DejaVuSans-53" transform="translate(1388.828125 0)"/>
    <use xlink:href="#DejaVuSans-44" transform="translate(1452.3125 0)"/>
    <use xlink:href="#DejaVuSans-4c" transform="translate(1513.59375 0)"/>
    <use xlink:href="#DejaVuSans-55" transform="translate(1541.375 0)"/>
    <use xlink:href="#DejaVuSans-56" transform="translate(1582.484375 0)"/>
    <use xlink:href="#DejaVuSans-3" transform="translate(1634.578125 0)"/>
    <use xlink:href="#DejaVuSans-4f" transform="translate(1666.359375 0)"/>
    <use xlink:href="#DejaVuSans-44" transform="translate(1694.140625 0)"/>
    <use xlink:href="#DejaVuSans-5c" transform="translate(1755.421875 0)"/>
    <use xlink:href="#DejaVuSans-48" transform="translate(1814.609375 0)"/>
    <use xlink:href="#DejaVuSans-55" transform="translate(1876.140625 0)"/>
    <use xlink:href="#DejaVuSans-10" transform="translate(1910.859375 0)"/>
    <use xlink:href="#DejaVuSans-13" transform="translate(1946.9375 0)"/>
    <use xlink:href="#DejaVuSans-3" transform="translate(2010.5625 0)"/>
    <use xlink:href="#DejaVuSans-55" transform="translate(2042.34375 0)"/>
    <use xlink:href="#DejaVuSans-52" transform="translate(2081.25 0)"/>
    <use xlink:href="#DejaVuSans-57" transform="translate(2142.4375 0)"/>
    <use xlink:href="#DejaVuSans-44" transform="translate(2181.640625 0)"/>
    <use xlink:href="#DejaVuSans-57" transform="translate(2242.921875 0)"/>
    <use xlink:href="#DejaVuSans-4c" transform="translate(2282.125 0)"/>
    <use xlink:href="#DejaVuSans-52" transform="translate(2309.90625 0)"/>
    <use xlink:href="#DejaVuSans-51" transform="translate(2371.09375 0)"/>
    <use xlink:href="#DejaVuSans-3" transform="translate(2434.46875 0)"/>
    <use xlink:href="#DejaVuSans-48" transform="translate(2466.25 0)"/>
    <use xlink:href="#DejaVuSans-55" transform="translate(2527.78125 0)"/>
    <use xlink:href="#DejaVuSans-55" transform="translate(2567.140625 0)"/>
    <use xlink:href="#DejaVuSans-52" transform="translate(2606.046875 0)"/>
    <use xlink:href="#DejaVuSans-55" transform="translate(2667.234375 0)"/>
    <use xlink:href="#DejaVuSans-56" transform="translate(2708.34375 0)"/>
   </g>
  </g>
  <g id="text_22">
   <!-- 1024 causal tokens, every row; TV is normalized BEFORE P storage rounding -->
   <g transform="translate(170.1175 428.4) scale(0.09 -0.09)">
    <defs>
     <path id="DejaVuSans-4e" d="M 581 4863 
L 1159 4863 
L 1159 1991 
L 2875 3500 
L 3609 3500 
L 1753 1863 
L 3688 0 
L 2938 0 
L 1159 1709 
L 1159 0 
L 581 0 
L 581 4863 
z
" transform="scale(0.015625)"/>
     <path id="DejaVuSans-f" d="M 750 794 
L 1409 794 
L 1409 256 
L 897 -744 
L 494 -744 
L 750 256 
L 750 794 
z
" transform="scale(0.015625)"/>
     <path id="DejaVuSans-5a" d="M 269 3500 
L 844 3500 
L 1563 769 
L 2278 3500 
L 2956 3500 
L 3675 769 
L 4391 3500 
L 4966 3500 
L 4050 0 
L 3372 0 
L 2619 2869 
L 1863 0 
L 1184 0 
L 269 3500 
z
" transform="scale(0.015625)"/>
     <path id="DejaVuSans-1e" d="M 750 3309 
L 1409 3309 
L 1409 2516 
L 750 2516 
L 750 3309 
z
M 750 794 
L 1409 794 
L 1409 256 
L 897 -744 
L 494 -744 
L 750 256 
L 750 794 
z
" transform="scale(0.015625)"/>
     <path id="DejaVuSans-37" d="M -19 4666 
L 3928 4666 
L 3928 4134 
L 2272 4134 
L 2272 0 
L 1638 0 
L 1638 4134 
L -19 4134 
L -19 4666 
z
" transform="scale(0.015625)"/>
     <path id="DejaVuSans-39" d="M 1831 0 
L 50 4666 
L 709 4666 
L 2188 738 
L 3669 4666 
L 4325 4666 
L 2547 0 
L 1831 0 
z
" transform="scale(0.015625)"/>
     <path id="DejaVuSans-5d" d="M 353 3500 
L 3084 3500 
L 3084 2975 
L 922 459 
L 3084 459 
L 3084 0 
L 275 0 
L 275 525 
L 2438 3041 
L 353 3041 
L 353 3500 
z
" transform="scale(0.015625)"/>
     <path id="DejaVuSans-47" d="M 2906 2969 
L 2906 4863 
L 3481 4863 
L 3481 0 
L 2906 0 
L 2906 525 
Q 2725 213 2448 61 
Q 2172 -91 1784 -91 
Q 1150 -91 751 415 
Q 353 922 353 1747 
Q 353 2572 751 3078 
Q 1150 3584 1784 3584 
Q 2172 3584 2448 3432 
Q 2725 3281 2906 2969 
z
M 947 1747 
Q 947 1113 1208 752 
Q 1469 391 1925 391 
Q 2381 391 2643 752 
Q 2906 1113 2906 1747 
Q 2906 2381 2643 2742 
Q 2381 3103 1925 3103 
Q 1469 3103 1208 2742 
Q 947 2381 947 1747 
z
" transform="scale(0.015625)"/>
     <path id="DejaVuSans-25" d="M 1259 2228 
L 1259 519 
L 2272 519 
Q 2781 519 3026 730 
Q 3272 941 3272 1375 
Q 3272 1813 3026 2020 
Q 2781 2228 2272 2228 
L 1259 2228 
z
M 1259 4147 
L 1259 2741 
L 2194 2741 
Q 2656 2741 2882 2914 
Q 3109 3088 3109 3444 
Q 3109 3797 2882 3972 
Q 2656 4147 2194 4147 
L 1259 4147 
z
M 628 4666 
L 2241 4666 
Q 2963 4666 3353 4366 
Q 3744 4066 3744 3513 
Q 3744 3084 3544 2831 
Q 3344 2578 2956 2516 
Q 3422 2416 3680 2098 
Q 3938 1781 3938 1306 
Q 3938 681 3513 340 
Q 3088 0 2303 0 
L 628 0 
L 628 4666 
z
" transform="scale(0.015625)"/>
     <path id="DejaVuSans-28" d="M 628 4666 
L 3578 4666 
L 3578 4134 
L 1259 4134 
L 1259 2753 
L 3481 2753 
L 3481 2222 
L 1259 2222 
L 1259 531 
L 3634 531 
L 3634 0 
L 628 0 
L 628 4666 
z
" transform="scale(0.015625)"/>
     <path id="DejaVuSans-35" d="M 2841 2188 
Q 3044 2119 3236 1894 
Q 3428 1669 3622 1275 
L 4263 0 
L 3584 0 
L 2988 1197 
Q 2756 1666 2539 1819 
Q 2322 1972 1947 1972 
L 1259 1972 
L 1259 0 
L 628 0 
L 628 4666 
L 2053 4666 
Q 2853 4666 3247 4331 
Q 3641 3997 3641 3322 
Q 3641 2881 3436 2590 
Q 3231 2300 2841 2188 
z
M 1259 4147 
L 1259 2491 
L 2053 2491 
Q 2509 2491 2742 2702 
Q 2975 2913 2975 3322 
Q 2975 3731 2742 3939 
Q 2509 4147 2053 4147 
L 1259 4147 
z
" transform="scale(0.015625)"/>
     <path id="DejaVuSans-33" d="M 1259 4147 
L 1259 2394 
L 2053 2394 
Q 2494 2394 2734 2622 
Q 2975 2850 2975 3272 
Q 2975 3691 2734 3919 
Q 2494 4147 2053 4147 
L 1259 4147 
z
M 628 4666 
L 2053 4666 
Q 2838 4666 3239 4311 
Q 3641 3956 3641 3272 
Q 3641 2581 3239 2228 
Q 2838 1875 2053 1875 
L 1259 1875 
L 1259 0 
L 628 0 
L 628 4666 
z
" transform="scale(0.015625)"/>
    </defs>
    <use xlink:href="#DejaVuSans-14"/>
    <use xlink:href="#DejaVuSans-13" transform="translate(63.625 0)"/>
    <use xlink:href="#DejaVuSans-15" transform="translate(127.25 0)"/>
    <use xlink:href="#DejaVuSans-17" transform="translate(190.875 0)"/>
    <use xlink:href="#DejaVuSans-3" transform="translate(254.5 0)"/>
    <use xlink:href="#DejaVuSans-46" transform="translate(286.28125 0)"/>
    <use xlink:href="#DejaVuSans-44" transform="translate(341.265625 0)"/>
    <use xlink:href="#DejaVuSans-58" transform="translate(402.546875 0)"/>
    <use xlink:href="#DejaVuSans-56" transform="translate(465.921875 0)"/>
    <use xlink:href="#DejaVuSans-44" transform="translate(518.015625 0)"/>
    <use xlink:href="#DejaVuSans-4f" transform="translate(579.296875 0)"/>
    <use xlink:href="#DejaVuSans-3" transform="translate(607.078125 0)"/>
    <use xlink:href="#DejaVuSans-57" transform="translate(638.859375 0)"/>
    <use xlink:href="#DejaVuSans-52" transform="translate(678.0625 0)"/>
    <use xlink:href="#DejaVuSans-4e" transform="translate(739.25 0)"/>
    <use xlink:href="#DejaVuSans-48" transform="translate(793.59375 0)"/>
    <use xlink:href="#DejaVuSans-51" transform="translate(855.125 0)"/>
    <use xlink:href="#DejaVuSans-56" transform="translate(918.5 0)"/>
    <use xlink:href="#DejaVuSans-f" transform="translate(970.59375 0)"/>
    <use xlink:href="#DejaVuSans-3" transform="translate(1002.375 0)"/>
    <use xlink:href="#DejaVuSans-48" transform="translate(1034.15625 0)"/>
    <use xlink:href="#DejaVuSans-59" transform="translate(1095.6875 0)"/>
    <use xlink:href="#DejaVuSans-48" transform="translate(1154.875 0)"/>
    <use xlink:href="#DejaVuSans-55" transform="translate(1216.40625 0)"/>
    <use xlink:href="#DejaVuSans-5c" transform="translate(1257.515625 0)"/>
    <use xlink:href="#DejaVuSans-3" transform="translate(1316.703125 0)"/>
    <use xlink:href="#DejaVuSans-55" transform="translate(1348.484375 0)"/>
    <use xlink:href="#DejaVuSans-52" transform="translate(1387.390625 0)"/>
    <use xlink:href="#DejaVuSans-5a" transform="translate(1448.578125 0)"/>
    <use xlink:href="#DejaVuSans-1e" transform="translate(1530.359375 0)"/>
    <use xlink:href="#DejaVuSans-3" transform="translate(1564.046875 0)"/>
    <use xlink:href="#DejaVuSans-37" transform="translate(1595.828125 0)"/>
    <use xlink:href="#DejaVuSans-39" transform="translate(1656.90625 0)"/>
    <use xlink:href="#DejaVuSans-3" transform="translate(1725.3125 0)"/>
    <use xlink:href="#DejaVuSans-4c" transform="translate(1757.09375 0)"/>
    <use xlink:href="#DejaVuSans-56" transform="translate(1784.875 0)"/>
    <use xlink:href="#DejaVuSans-3" transform="translate(1836.96875 0)"/>
    <use xlink:href="#DejaVuSans-51" transform="translate(1868.75 0)"/>
    <use xlink:href="#DejaVuSans-52" transform="translate(1932.125 0)"/>
    <use xlink:href="#DejaVuSans-55" transform="translate(1993.3125 0)"/>
    <use xlink:href="#DejaVuSans-50" transform="translate(2032.671875 0)"/>
    <use xlink:href="#DejaVuSans-44" transform="translate(2130.078125 0)"/>
    <use xlink:href="#DejaVuSans-4f" transform="translate(2191.359375 0)"/>
    <use xlink:href="#DejaVuSans-4c" transform="translate(2219.140625 0)"/>
    <use xlink:href="#DejaVuSans-5d" transform="translate(2246.921875 0)"/>
    <use xlink:href="#DejaVuSans-48" transform="translate(2299.40625 0)"/>
    <use xlink:href="#DejaVuSans-47" transform="translate(2360.9375 0)"/>
    <use xlink:href="#DejaVuSans-3" transform="translate(2424.421875 0)"/>
    <use xlink:href="#DejaVuSans-25" transform="translate(2456.203125 0)"/>
    <use xlink:href="#DejaVuSans-28" transform="translate(2524.8125 0)"/>
    <use xlink:href="#DejaVuSans-29" transform="translate(2588 0)"/>
    <use xlink:href="#DejaVuSans-32" transform="translate(2645.515625 0)"/>
    <use xlink:href="#DejaVuSans-35" transform="translate(2724.234375 0)"/>
    <use xlink:href="#DejaVuSans-28" transform="translate(2793.71875 0)"/>
    <use xlink:href="#DejaVuSans-3" transform="translate(2856.90625 0)"/>
    <use xlink:href="#DejaVuSans-33" transform="translate(2888.6875 0)"/>
    <use xlink:href="#DejaVuSans-3" transform="translate(2948.984375 0)"/>
    <use xlink:href="#DejaVuSans-56" transform="translate(2980.765625 0)"/>
    <use xlink:href="#DejaVuSans-57" transform="translate(3032.859375 0)"/>
    <use xlink:href="#DejaVuSans-52" transform="translate(3072.0625 0)"/>
    <use xlink:href="#DejaVuSans-55" transform="translate(3133.25 0)"/>
    <use xlink:href="#DejaVuSans-44" transform="translate(3174.359375 0)"/>
    <use xlink:href="#DejaVuSans-4a" transform="translate(3235.640625 0)"/>
    <use xlink:href="#DejaVuSans-48" transform="translate(3299.125 0)"/>
    <use xlink:href="#DejaVuSans-3" transform="translate(3360.65625 0)"/>
    <use xlink:href="#DejaVuSans-55" transform="translate(3392.4375 0)"/>
    <use xlink:href="#DejaVuSans-52" transform="translate(3431.34375 0)"/>
    <use xlink:href="#DejaVuSans-58" transform="translate(3492.53125 0)"/>
    <use xlink:href="#DejaVuSans-51" transform="translate(3555.90625 0)"/>
    <use xlink:href="#DejaVuSans-47" transform="translate(3619.28125 0)"/>
    <use xlink:href="#DejaVuSans-4c" transform="translate(3682.765625 0)"/>
    <use xlink:href="#DejaVuSans-51" transform="translate(3710.546875 0)"/>
    <use xlink:href="#DejaVuSans-4a" transform="translate(3773.921875 0)"/>
   </g>
  </g>
  <g id="legend_1">
   <g id="patch_12">
    <path d="M 121.985781 53.820703 
L 563.615781 53.820703 
Q 565.415781 53.820703 565.415781 52.020703 
L 565.415781 39.42 
Q 565.415781 37.62 563.615781 37.62 
L 121.985781 37.62 
Q 120.185781 37.62 120.185781 39.42 
L 120.185781 52.020703 
Q 120.185781 53.820703 121.985781 53.820703 
z
" style="fill: #ffffff; opacity: 0.8; stroke: #cccccc; stroke-linejoin: miter"/>
   </g>
   <g id="line2d_59">
    <path d="M 123.785781 44.908594 
L 132.785781 44.908594 
L 141.785781 44.908594 
" style="fill: none; stroke: #34495e; stroke-width: 1.5; stroke-linecap: square"/>
    <g>
     <use xlink:href="#m70e382ac68" x="132.785781" y="44.908594" style="fill: #34495e; stroke: #34495e"/>
    </g>
   </g>
   <g id="text_23">
    <!-- layer 0, head 0 -->
    <g transform="translate(148.985781 48.058594) scale(0.09 -0.09)">
     <use xlink:href="#DejaVuSans-4f"/>
     <use xlink:href="#DejaVuSans-44" transform="translate(27.78125 0)"/>
     <use xlink:href="#DejaVuSans-5c" transform="translate(89.0625 0)"/>
     <use xlink:href="#DejaVuSans-48" transform="translate(148.25 0)"/>
     <use xlink:href="#DejaVuSans-55" transform="translate(209.78125 0)"/>
     <use xlink:href="#DejaVuSans-3" transform="translate(250.890625 0)"/>
     <use xlink:href="#DejaVuSans-13" transform="translate(282.671875 0)"/>
     <use xlink:href="#DejaVuSans-f" transform="translate(346.296875 0)"/>
     <use xlink:href="#DejaVuSans-3" transform="translate(378.078125 0)"/>
     <use xlink:href="#DejaVuSans-4b" transform="translate(409.859375 0)"/>
     <use xlink:href="#DejaVuSans-48" transform="translate(473.234375 0)"/>
     <use xlink:href="#DejaVuSans-44" transform="translate(534.765625 0)"/>
     <use xlink:href="#DejaVuSans-47" transform="translate(596.046875 0)"/>
     <use xlink:href="#DejaVuSans-3" transform="translate(659.53125 0)"/>
     <use xlink:href="#DejaVuSans-13" transform="translate(691.3125 0)"/>
    </g>
   </g>
   <g id="line2d_60">
    <path d="M 234.930156 44.908594 
L 243.930156 44.908594 
L 252.930156 44.908594 
" style="fill: none; stroke: #0072b2; stroke-width: 1.5; stroke-linecap: square"/>
    <g>
     <use xlink:href="#m93da9fa3be" x="243.930156" y="44.908594" style="fill: #0072b2; stroke: #0072b2"/>
    </g>
   </g>
   <g id="text_24">
    <!-- layer 0, head 7 -->
    <g transform="translate(260.130156 48.058594) scale(0.09 -0.09)">
     <defs>
      <path id="DejaVuSans-1a" d="M 525 4666 
L 3525 4666 
L 3525 4397 
L 1831 0 
L 1172 0 
L 2766 4134 
L 525 4134 
L 525 4666 
z
" transform="scale(0.015625)"/>
     </defs>
     <use xlink:href="#DejaVuSans-4f"/>
     <use xlink:href="#DejaVuSans-44" transform="translate(27.78125 0)"/>
     <use xlink:href="#DejaVuSans-5c" transform="translate(89.0625 0)"/>
     <use xlink:href="#DejaVuSans-48" transform="translate(148.25 0)"/>
     <use xlink:href="#DejaVuSans-55" transform="translate(209.78125 0)"/>
     <use xlink:href="#DejaVuSans-3" transform="translate(250.890625 0)"/>
     <use xlink:href="#DejaVuSans-13" transform="translate(282.671875 0)"/>
     <use xlink:href="#DejaVuSans-f" transform="translate(346.296875 0)"/>
     <use xlink:href="#DejaVuSans-3" transform="translate(378.078125 0)"/>
     <use xlink:href="#DejaVuSans-4b" transform="translate(409.859375 0)"/>
     <use xlink:href="#DejaVuSans-48" transform="translate(473.234375 0)"/>
     <use xlink:href="#DejaVuSans-44" transform="translate(534.765625 0)"/>
     <use xlink:href="#DejaVuSans-47" transform="translate(596.046875 0)"/>
     <use xlink:href="#DejaVuSans-3" transform="translate(659.53125 0)"/>
     <use xlink:href="#DejaVuSans-1a" transform="translate(691.3125 0)"/>
    </g>
   </g>
   <g id="line2d_61">
    <path d="M 346.074531 44.908594 
L 355.074531 44.908594 
L 364.074531 44.908594 
" style="fill: none; stroke: #d55e00; stroke-width: 1.5; stroke-linecap: square"/>
    <g>
     <use xlink:href="#m75443fd9da" x="355.074531" y="44.908594" style="fill: #d55e00; stroke: #d55e00"/>
    </g>
   </g>
   <g id="text_25">
    <!-- layer 12, head 0 -->
    <g transform="translate(371.274531 48.058594) scale(0.09 -0.09)">
     <use xlink:href="#DejaVuSans-4f"/>
     <use xlink:href="#DejaVuSans-44" transform="translate(27.78125 0)"/>
     <use xlink:href="#DejaVuSans-5c" transform="translate(89.0625 0)"/>
     <use xlink:href="#DejaVuSans-48" transform="translate(148.25 0)"/>
     <use xlink:href="#DejaVuSans-55" transform="translate(209.78125 0)"/>
     <use xlink:href="#DejaVuSans-3" transform="translate(250.890625 0)"/>
     <use xlink:href="#DejaVuSans-14" transform="translate(282.671875 0)"/>
     <use xlink:href="#DejaVuSans-15" transform="translate(346.296875 0)"/>
     <use xlink:href="#DejaVuSans-f" transform="translate(409.921875 0)"/>
     <use xlink:href="#DejaVuSans-3" transform="translate(441.703125 0)"/>
     <use xlink:href="#DejaVuSans-4b" transform="translate(473.484375 0)"/>
     <use xlink:href="#DejaVuSans-48" transform="translate(536.859375 0)"/>
     <use xlink:href="#DejaVuSans-44" transform="translate(598.390625 0)"/>
     <use xlink:href="#DejaVuSans-47" transform="translate(659.671875 0)"/>
     <use xlink:href="#DejaVuSans-3" transform="translate(723.15625 0)"/>
     <use xlink:href="#DejaVuSans-13" transform="translate(754.9375 0)"/>
    </g>
   </g>
   <g id="line2d_62">
    <path d="M 462.945156 44.908594 
L 471.945156 44.908594 
L 480.945156 44.908594 
" style="fill: none; stroke: #cc79a7; stroke-width: 1.5; stroke-linecap: square"/>
    <g>
     <use xlink:href="#md7bc3b42ff" x="471.945156" y="44.908594" style="fill: #cc79a7; stroke: #cc79a7"/>
    </g>
   </g>
   <g id="text_26">
    <!-- layer 12, head 7 -->
    <g transform="translate(488.145156 48.058594) scale(0.09 -0.09)">
     <use xlink:href="#DejaVuSans-4f"/>
     <use xlink:href="#DejaVuSans-44" transform="translate(27.78125 0)"/>
     <use xlink:href="#DejaVuSans-5c" transform="translate(89.0625 0)"/>
     <use xlink:href="#DejaVuSans-48" transform="translate(148.25 0)"/>
     <use xlink:href="#DejaVuSans-55" transform="translate(209.78125 0)"/>
     <use xlink:href="#DejaVuSans-3" transform="translate(250.890625 0)"/>
     <use xlink:href="#DejaVuSans-14" transform="translate(282.671875 0)"/>
     <use xlink:href="#DejaVuSans-15" transform="translate(346.296875 0)"/>
     <use xlink:href="#DejaVuSans-f" transform="translate(409.921875 0)"/>
     <use xlink:href="#DejaVuSans-3" transform="translate(441.703125 0)"/>
     <use xlink:href="#DejaVuSans-4b" transform="translate(473.484375 0)"/>
     <use xlink:href="#DejaVuSans-48" transform="translate(536.859375 0)"/>
     <use xlink:href="#DejaVuSans-44" transform="translate(598.390625 0)"/>
     <use xlink:href="#DejaVuSans-47" transform="translate(659.671875 0)"/>
     <use xlink:href="#DejaVuSans-3" transform="translate(723.15625 0)"/>
     <use xlink:href="#DejaVuSans-1a" transform="translate(754.9375 0)"/>
    </g>
   </g>
  </g>
 </g>
 <defs>
  <clipPath id="pcb0d12a855">
   <rect x="45.800781" y="88.2" width="279" height="249.48"/>
  </clipPath>
  <clipPath id="pf5dbe2e662">
   <rect x="380.600781" y="88.2" width="279" height="249.48"/>
  </clipPath>
 </defs>
</svg>
